<?xml version="1.0" encoding="utf-8"?>
<!-- Generator: Adobe Adobe Illustrator 29.2.0, SVG Export Plug-In . SVG Version: 6.00 Build 0)  -->
<svg version="1.1" id="Layer_1" xmlns="http://www.w3.org/2000/svg" xmlns:xlink="http://www.w3.org/1999/xlink" x="0px" y="0px"
	 width="24px" height="24px" viewBox="0 0 24 24" style="enable-background:new 0 0 24 24;" xml:space="preserve">
<style type="text/css">
	.st0{fill:#FFFFFF;}
	.st1{fill:#FFFFFF;filter:url(#Adobe_OpacityMaskFilter);}
	.st2{mask:url(#mask0_2629_1446_00000153670773991245103320000003621354330740942488_);}
</style>
<g>
	<path d="M23.4,4.9c-0.1-0.8-0.2-1.8-0.5-3.1c-0.1,0-0.4,0-0.9-0.1c-7-0.5-19.7,0.4-20.3,0c0,0-0.2-0.1-0.4-0.1
		c-0.1,0-0.2,0-0.3,0.1C0.6,1.9,0.5,2.5,0.5,2.9c-0.2,1.7,0,3.6-0.1,5.3c0,0.6-0.3,1.2-0.3,1.8C-0.1,12.9,0.3,16,0,19
		c-0.2,1.5-0.7,2.8,0,4.4C0,23.6,0.4,23.8,0.6,24c1.6-0.2,3,0.1,4.5,0.2c0.7,0,3.7,0.1,7.9,0.1c2.7,0,6.1-0.1,10.1-0.4
		c0.1-0.9,0.3-2,0.3-3.3c0-0.7,0.1-1.9,0.1-3.5c-0.1-1.8-0.3-2.9-0.3-4.4c0-1,0.1-0.8,0.1-2.4C23.5,8.6,23.6,6.9,23.4,4.9L23.4,4.9z
		 M22.3,9.5C22.3,9.5,22.3,9.5,22.3,9.5c0.1,6.6,0.1,11.5,0,12.5c0,0.2-0.1,0.7-0.6,1c-0.4,0.2-0.9,0.3-1.7,0.4
		c-3.6,0.2-7.3,0-10.9-0.1c-1,0-1.9,0-2.9,0C4.6,23.2,3,23,1.4,22.9c-0.4-0.1-0.5-0.9-0.5-1.2c0-0.9,0.2-1.7,0.3-2.6
		c0.1-1.7,0.2-3.4,0.1-5.1c-0.2-3.9,0-6.5,0.1-7.9c0-0.1,0.1-0.6,0.1-1.3c0.1-0.9,0.1-1.6,0.1-2.1c4.8-0.2,10-0.3,15.5-0.2
		c1.6,0,3.2,0.1,4.7,0.2c0.1,0.9,0.2,1.9,0.2,2.8C22.2,6.8,22.2,8.1,22.3,9.5L22.3,9.5z"/>
	<path d="M7.1,8.6C7.1,7,7.1,5.8,7,5.1C6.9,3.8,6.8,2.7,6.7,1.8c-0.4,0-0.8,0-1.1-0.1c0,0.4,0,1,0.2,1.7c0,0.2,0.1,0.3,0.1,0.3
		c0.1,1,0.1,5.9,0,12.6c0,0,0,0,0,0c0,1.3-0.1,2.7-0.2,4.1c-0.1,1-0.1,1.9-0.2,2.8c-0.7,0-1.5,0.1-2.3,0.1c0.1,0.1,0.1,0.1,0.2,0.1
		c0.1,0.1,0.2,0.2,0.3,0.3c0,0,0,0,0,0c0.1,0,0.1,0,0.1,0.1c0,0,0.1,0,0.2,0.1C4.5,24,5.1,24,5.6,24.1C6,24,6.3,24,6.4,24
		c0.3-1.3,0.4-2.4,0.5-3.1c0.2-2.1,0.1-3.8,0.1-5.4c-0.1-1.6-0.1-1.4-0.1-2.4C6.8,11.5,7,10.4,7.1,8.6L7.1,8.6z"/>
	<defs>
		<filter id="Adobe_OpacityMaskFilter" filterUnits="userSpaceOnUse" x="-0.3" y="0.5" width="6.6" height="41">
			<feColorMatrix  type="matrix" values="1 0 0 0 0  0 1 0 0 0  0 0 1 0 0  0 0 0 1 0"/>
		</filter>
	</defs>
	
		<mask maskUnits="userSpaceOnUse" x="-0.3" y="0.5" width="6.6" height="41" id="mask0_2629_1446_00000153670773991245103320000003621354330740942488_">
		<path class="st1" d="M1.4,22.9c-0.4-0.1-0.5-0.9-0.5-1.3c0-0.9,0.2-1.8,0.3-2.6c0.1-1.7,0.2-3.4,0.1-5.1c-0.2-3.9,0-6.5,0.1-8
			c0-0.1,0.1-0.6,0.1-1.3C1.6,3.8,1.7,3,1.6,2.5c0.6-0.1,1.3-0.1,2-0.2c0.7-0.1,1.3-0.1,2-0.1c0,0.3,0.1,0.7,0.2,1.3
			c0,0.2,0.1,0.3,0.1,0.3c0.1,1,0.1,5.9,0,12.5c0,0,0,0,0,0c0,1.3-0.1,2.7-0.2,4.1c-0.1,1-0.1,1.9-0.2,2.8c-0.2,0-0.4,0-0.5,0
			C3.7,23.1,2.5,22.9,1.4,22.9L1.4,22.9z"/>
	</mask>
	<g class="st2">
		<path d="M6.2,37.2c-0.4,0.3-1.2,0.2-1.3-0.1c-0.1-0.2,0.1-0.4,0.3-0.5C5.6,36.3,6.8,36.8,6.2,37.2L6.2,37.2z M4.4,25.6
			c0.1,0.4,1.2,0.5,1.4,0.1C6.1,25.3,4.2,24.7,4.4,25.6z M4.6,30.8c0,0,0.1,0.4,0.1,0.5c0.3,0.6,1.6,0,1.2-0.3
			c-0.1-0.1-0.6-0.3-0.9-0.3C5,30.7,4.6,30.8,4.6,30.8L4.6,30.8z M5.8,38.7c-0.3-0.7-2-1.1-2.2-1.3c-0.1-0.1-0.3-0.1-0.3-0.2
			c0-0.1,1.1-1,1.2-1.2c0.2-0.2,1.3-0.9,1.3-1c0-0.1-0.2-0.2-0.2-0.3c-0.1-0.4-0.1-1-0.1-1.5c0-0.2,0.2-0.4-0.1-0.6l0.2-0.3
			l-2.3-1.3C4,30.6,4.7,30,5.6,29.5l0.2-1.4c0-0.2,0-0.9-0.2-1C5.5,27,5.3,27,5.2,27c-0.3-0.2-0.7-0.3-1-0.5
			c-0.2-0.1-1.5-0.6-1.5-0.8l2.1-1.5l0.6,0c0-0.5,0.1-1,0.2-1.5c0-0.1,0-0.5,0-0.6c0.1-0.2,0.6-0.2,0-0.5c-0.6-0.3-1.1-0.6-1.7-0.8
			c-0.4-0.2-0.9-0.3-1.1-0.5c0-0.1,1.2-0.7,1.4-0.8c0.2-0.1,0.5-0.4,0.7-0.5c0.1-0.1,0.3,0,0.4-0.1c0.1,0,0.2-0.5,0.2-0.6
			c0-0.2,0-1.2,0-1.2c-0.1,0-0.3-0.1-0.4-0.1c-0.6-0.2-1.3-0.5-1.8-0.7C3,16.1,2.8,16,2.8,16c0.6-0.2,1-0.6,1.4-0.9
			c0.3-0.2,1.2-0.6,1.1-0.9c0-0.3,0-0.5,0.1-0.8c0.1-0.5,0-1,0.1-1.5c0-0.1-0.9-0.5-1.1-0.5C4,11.3,2.9,11,2.9,10.8
			c0,0,0.7-0.5,0.8-0.6C4.1,9.9,5.2,9.4,5.4,9c0.2-0.3,0.2-1.6,0.2-1.9c0,0,0-0.1-0.1-0.1c-1-0.2-1.9-0.6-2.8-1
			c0.3-0.2,0.6-0.4,1-0.7c0.7-0.5,0.8-0.6,1.1-0.7c0.5-0.4,0.8-0.7,1-0.9C5.9,3.6,6,3.5,6.1,3.4C4.6,2.7,3.8,2.3,3.7,2.4
			C3.6,2.5,4.1,2.9,5.1,3.7C3.9,4.4,3.2,5.4,1.8,6l0,0.3c1,0.3,2,0.6,2.9,1c0.1,0.1,0.2,0.4,0.2,0.5c0,0.2,0,0.8-0.1,1
			C4.6,9.2,3.6,9.8,3.2,10c-0.2,0.1-0.4,0.3-0.6,0.5c-0.3,0.2-0.8,0.2-0.8,0.5c0,0.2,1,0.4,1.3,0.5c0.4,0.1,1.5,0.4,1.7,0.7
			c0.2,0.2,0,1.1,0,1.3c0,0.2,0.1,0.5-0.1,0.7c-0.1,0.1-0.3,0.1-0.4,0.2c-0.6,0.5-1.1,1-2.1,1.3c-0.2,0.1-0.3,0-0.4,0.1
			c-0.1,0.4,0.1,0.3,0.5,0.5c0.8,0.3,1.7,0.6,2.4,1l0,1.2c-0.5,0-0.5,0.3-0.8,0.6c-0.3,0.3-1.3,0.8-1.7,1c-0.1,0-0.3,0.1-0.3,0.1
			c-0.1,0.1-0.2,0.3,0,0.4C3.1,20.9,4,21.4,5,21.9l0.1,0.1c-0.4,0.2-0.2,0.6-0.2,0.9c0,0.1-0.1,0.8-0.2,0.8c0,0-0.2,0-0.3,0.1
			c-0.1,0-0.1,0.1-0.1,0.2C4.3,23.9,4.2,24,4.1,24c-0.5,0.4-0.7,0.7-1.4,1.1c-0.4,0.3-1.2,0.5-0.9,0.9c0.4,0.1,0.6,0.3,1,0.5
			c0.5,0.2,2.1,0.7,2.2,1.1c0,0.2-0.1,0.3-0.1,0.4c0,0.4,0.1,0.9,0,1.2c0,0.1-0.9,0.8-1,0.9c-0.3,0.2-0.6,0.4-0.9,0.6
			c-0.1,0.1-0.5,0.2-0.5,0.3c-0.1,0.3,0.5,0.4,0.9,0.6C3.9,32,4.4,32.3,5,32.6c-0.1,0.8,0,1.5,0.1,2.3c-0.2,0.3-0.7,0.5-1,0.8
			c-0.4,0.4-1,1-1.5,1.3c-0.1,0.1-0.3,0.1-0.3,0.1c0.1,0.1,0,0.3,0.2,0.4c0.1,0.1,0.3,0.1,0.4,0.1c0.8,0.4,1.5,0.8,2.3,1.2l0.2,0.8
			c-0.1,0.4,0,0.7,0,1.1c0,0.1-0.2,0.8-0.1,0.8c0.6,0,0.7-0.4,0.7-0.7c0.1-0.7,0-1.2-0.1-1.8C5.8,38.7,5.8,38.7,5.8,38.7L5.8,38.7z
			 M5.6,15.3c-0.8-0.3-1.2,0.1-1.1,0.6c0.1,0.3,1,0.2,1.3,0.1C6.2,15.7,6,15.4,5.6,15.3L5.6,15.3z M4.9,10.2
			c-0.1,0.1-0.2,0.4-0.2,0.5c0.1,0.2,0.7,0.4,1.1,0.3c0.4-0.1,0.5-0.8-0.2-0.9C5.5,10.1,5,10.2,4.9,10.2z M4.9,5.6
			c0,0-0.2,0.3-0.2,0.3C4.6,6.2,5.6,6.3,5.8,6.1C6.2,5.7,5.3,5.2,4.9,5.6z M5.9,20.2C5.8,20,5.3,19.8,5,19.9
			c-0.2,0.1-0.3,0.4-0.2,0.6C4.9,20.7,6.1,20.7,5.9,20.2z"/>
		<path d="M-0.1,35c0.4,0.3,1.2,0.2,1.3-0.1c0.1-0.2-0.1-0.4-0.3-0.5C0.4,34.1-0.7,34.6-0.1,35L-0.1,35z M1.6,23.4
			c-0.1,0.4-1.2,0.5-1.4,0.1C-0.1,23.1,1.9,22.5,1.6,23.4z M1.5,28.6c0,0-0.1,0.4-0.1,0.5c-0.3,0.6-1.6,0-1.2-0.3
			c0.1-0.1,0.6-0.3,0.9-0.3C1.1,28.5,1.5,28.6,1.5,28.6L1.5,28.6z M0.2,36.5c0.6-0.4,1.6-0.8,2.2-1.3c0.1-0.1,0.3-0.1,0.3-0.2
			c0-0.1-1.1-1-1.2-1.2c-0.2-0.2-1.3-0.9-1.3-1c0-0.1,0.2-0.2,0.2-0.3c0.1-0.4,0.1-1,0.1-1.5c0-0.2-0.2-0.4,0.1-0.6l-0.2-0.3L2.7,29
			c-0.7-0.6-1.3-1.1-2.2-1.6l-0.2-1.4c0-0.2,0-0.9,0.2-1c0.1,0,0.3-0.1,0.4-0.1c0.3-0.2,0.7-0.3,1-0.5c0.2-0.1,1.5-0.6,1.5-0.8
			L1.3,22l-0.6,0c0-0.5-0.1-1-0.2-1.5c0-0.1,0-0.5,0-0.6c-0.1-0.2-0.6-0.2,0-0.5c0.6-0.3,1.1-0.6,1.7-0.8c0.4-0.2,0.9-0.3,1.1-0.5
			c0-0.1-1.2-0.7-1.4-0.8c-0.2-0.1-0.5-0.4-0.7-0.5c-0.1-0.1-0.3,0-0.4-0.1c-0.1,0-0.2-0.5-0.2-0.6c0-0.2,0-1.2,0-1.2
			c0.1,0,0.3-0.1,0.4-0.1C1.7,14.5,2.4,14.2,3,14c0.1,0,0.3-0.1,0.3-0.2c-0.6-0.2-1-0.6-1.4-0.9c-0.3-0.2-1.2-0.6-1.1-0.9
			c0-0.3,0-0.5-0.1-0.8c-0.1-0.5,0-1-0.1-1.5c0-0.1,0.9-0.5,1.1-0.5C2,9.1,3.2,8.8,3.2,8.6c0,0-0.7-0.5-0.8-0.6
			C1.9,7.7,0.9,7.2,0.6,6.8C0.5,6.5,0.4,5.3,0.5,4.9c0,0,0-0.1,0.1-0.1c1-0.2,1.9-0.6,2.8-1c0-0.1-0.9-0.6-1-0.7
			C2.1,3,1.9,2.7,1.7,2.6C1.6,2.5,1.1,2.1,1,2.2l0.1,0.5C0.3,2.8,0.2,2.1,0.2,1.8c-0.1-0.4,0-0.9,0.1-1.3h0.5c0.3,0.3,0,0.7,0.2,1
			c0.4,0.4,0.9,0.8,1.6,1.2c0.6,0.4,1.2,0.7,1.7,1c0,0.1-0.1,0.2-0.1,0.3C3.7,4.2,3.2,4.4,2.7,4.6C2.2,4.8,1.7,5,1.3,5.2
			C1.2,5.3,1.1,5.6,1.1,5.7c0,0.2,0,0.8,0.1,1C1.4,7,2.5,7.6,2.9,7.8C3.1,8,3.3,8.2,3.5,8.3c0.3,0.2,0.8,0.2,0.8,0.5
			c0,0.2-1,0.4-1.3,0.5C2.6,9.4,1.6,9.7,1.3,9.9c-0.2,0.2,0,1.1,0,1.3c0,0.2-0.1,0.5,0.1,0.7c0.1,0.1,0.3,0.1,0.4,0.2
			c0.6,0.5,1.1,1,2.1,1.3c0.2,0.1,0.3,0,0.4,0.1c0.1,0.4-0.1,0.3-0.5,0.5c-0.8,0.3-1.7,0.6-2.4,1l0,1.2c0.5,0,0.5,0.3,0.8,0.6
			c0.3,0.3,1.3,0.8,1.7,1c0.1,0,0.3,0.1,0.3,0.1c0.1,0.1,0.2,0.3,0,0.4C3,18.7,2,19.2,1,19.7L1,19.8c0.4,0.2,0.2,0.6,0.2,0.9
			c0,0.1,0.1,0.8,0.2,0.8c0,0,0.2,0,0.3,0.1c0.1,0,0.1,0.1,0.1,0.2c0.1,0.1,0.2,0.1,0.2,0.1c0.5,0.4,0.7,0.7,1.4,1.1
			c0.4,0.3,1.2,0.5,0.9,0.9c-0.4,0.1-0.6,0.3-1,0.5C2.7,24.5,1.2,25,1,25.4c0,0.2,0.1,0.3,0.1,0.4c0,0.4-0.1,0.9,0,1.2
			c0,0.1,0.9,0.8,1,0.9c0.3,0.2,0.6,0.4,0.9,0.6c0.1,0.1,0.5,0.2,0.5,0.3c0.1,0.3-0.5,0.4-0.9,0.6c-0.6,0.3-1.1,0.6-1.7,0.9
			c0.1,0.8,0,1.5-0.1,2.3c0.2,0.3,0.7,0.5,1,0.8c0.4,0.4,1,1,1.5,1.3c0.1,0.1,0.3,0.1,0.3,0.1c-0.1,0.1,0,0.3-0.2,0.4
			c-0.1,0.1-0.3,0.1-0.4,0.1c-0.8,0.4-1.5,0.8-2.3,1.2l-0.2,0.8c0.1,0.4,0,0.7,0,1.1c0,0.1,0.2,0.8,0.1,0.8c-0.6,0-0.7-0.4-0.7-0.7
			c-0.1-0.6,0.2-1.3,0.1-1.8C0.2,36.7-0.1,36.7,0.2,36.5L0.2,36.5z M0.5,13.1c0.8-0.3,1.2,0.1,1.1,0.6c-0.1,0.3-1,0.2-1.3,0.1
			C-0.1,13.5,0.1,13.2,0.5,13.1L0.5,13.1z M1.1,8c0.1,0.1,0.2,0.4,0.2,0.5C1.2,8.7,0.7,8.9,0.3,8.8C-0.1,8.7-0.2,8,0.5,7.9
			C0.5,7.9,1.1,8,1.1,8z M1.2,3.4c0,0,0.2,0.3,0.2,0.3C1.5,4,0.5,4.1,0.3,3.9C-0.2,3.5,0.7,3,1.2,3.4z M0.2,18
			c0.1-0.2,0.6-0.4,0.9-0.3c0.2,0.1,0.3,0.4,0.2,0.6C1.2,18.5-0.1,18.5,0.2,18z"/>
	</g>
	<path d="M1.2,1.4C8,0.9,14.8,0.5,21.6,0l1.4,1.9H1.4C1.3,1.7,1.3,1.6,1.2,1.4L1.2,1.4z"/>
</g>
</svg>
