<?xml version="1.0" encoding="utf-8"?>
<!-- Generator: Adobe Adobe Illustrator 29.2.0, SVG Export Plug-In . SVG Version: 6.00 Build 0)  -->
<svg version="1.1" id="Layer_1" xmlns="http://www.w3.org/2000/svg" xmlns:xlink="http://www.w3.org/1999/xlink" x="0px" y="0px"
	 width="24px" height="24px" viewBox="0 0 24 24" style="enable-background:new 0 0 24 24;" xml:space="preserve">
<style type="text/css">
	.st0{fill:#FFFFFF;}
	.st1{fill:#FFFFFF;filter:url(#Adobe_OpacityMaskFilter);}
	.st2{mask:url(#mask0_2629_1446_00000153670773991245103320000003621354330740942488_);}
</style>
<g>
	<path d="M9.3,6.3C9.2,6.4,9.1,7,9,7.3C8,8.7,6.6,9.8,5.6,11c-0.1,0.1-0.5,0.6-0.4,0.7c0.2,0.1,0.5-0.1,0.7-0.1c0.2,0,0.2,0,0.3,0
		c0.2,0,0.4,0,0.4,0c0.9-0.1,2,1,2,1c2.2,2.1,6.6,6.6,7.9,7.9c0.4,0.4,0.8,0.7,1.1,1.1c0.6,0.6,1,1.5,1.7,2c0.3-0.1,0.7-0.3,0.7-0.7
		c0.1-0.6-0.7-1.3-1-1.6c-2.1-2.9-4.3-5.6-6.5-8.4c-1.7-2.2-2.4-2.6-2.8-5.7c0-0.3,0-0.7,0-0.9C9.8,6.1,9.4,6.2,9.3,6.3L9.3,6.3z
		 M7.2,10.7C7.9,10,8.6,9.3,9.3,8.6c0.1,0,0.4,0.8,0.4,1c0.2,0.9,0.1,0.8,0.6,1.6c1.1,1.8,2.8,3.8,4,5.6c0.4,0.6,0.9,1.1,1.3,1.6
		l-2-1.9c-1.7-1.7-3.4-3.5-5.2-5.2C8,11.1,7.6,10.9,7.2,10.7z"/>
	<path d="M3.9,4.8l1.5-2.2c0.8,0.7,1.5,1.3,2.3,2l0.2,3.2C7.3,8.4,6.8,9,6.2,9.6C5,9.5,3.8,9.5,2.6,9.4c0.9-1.3,1.8-2.7,2.7-4
		c0.2,0,0.4,0.5,0.5,0.7C6,6.4,6.5,7.5,6,7.7C5.3,8,5.5,7,5.1,6.7C5,7,4,8.6,4.1,8.7C4.7,8.8,5.2,8.9,5.7,9c0.4-0.5,0.8-1,1.2-1.5
		c0-0.8-0.1-1.5-0.1-2.3c0-0.1-1-1-1.1-1.1C5.7,4,5.6,3.9,5.5,4C5.1,4.6,4.7,5.2,4.2,5.8C3.8,6.4,3.3,7.1,2.9,7.7
		c0-1.6,0-3.2,0.1-4.8C2.5,2.8,2,2.6,1.5,2.4C1.1,2.3,0.6,2.1,0.1,1.9c0.2-0.3,0.3-0.7,0.5-1c0.7,0.3,1.5,0.6,2.3,0.9
		c0.3,0.1,0.6,0.2,1,0.4C3.9,3,3.9,3.9,3.9,4.8L3.9,4.8z"/>
	<path d="M21.1,2.4c1,0.3,2,0.6,3,1c-0.1,0.3-0.2,0.7-0.3,1.2c-0.4,1.4-0.7,2-0.8,2.3c-0.3,1.2-1.9,1-2.8,1.1
		c-0.5,0.1-0.9,0.4-1.4,0.3l-0.3-0.5l-1.1-3.4c0.1-0.1,0.2-0.1,0.3-0.1c0.8-0.1,2.3,0,3.2,0c0.6,0.1,0.7,0.3,0.8,0.4
		c0.4,0.5,0.1,1.4,0.1,1.6c-0.7,0.1-1.4,0.2-2.2,0.3c0-0.2,0-0.5,0.1-0.7c0.3-0.4,1.1,0.1,1.3-0.3c0.1-0.1,0.1-0.2,0-0.6
		c-0.8,0.1-1.7,0.1-2.5,0.1c-0.1,0.1,0.6,2.1,0.9,2.2l2.9-0.6l0.8-2.9c-0.7-0.2-1.5-0.4-2.3-0.7c-0.4-0.1-0.8-0.3-1.2-0.4
		c0.4-0.4,0.8-0.8,1.2-1.2C21.4,1,22,0.4,22.7,0c0.5,0,1,0.1,1.5,0.1c-0.6,0.3-1.2,0.7-1.8,1.2C21.9,1.7,21.4,2.1,21.1,2.4L21.1,2.4
		z"/>
	<path d="M13.1,13.3c1-1.4,2.4-3.3,3.4-4.7C16.6,8.8,16.8,9,17,9.1c0.5,0.5,1,0.9,1.5,1.4c-0.5-0.1-1,0.6-1.4,1
		c-0.8,0.6-2.1,1.8-2.7,2.6c-0.3,0.4-0.3,0.5,0.1,1c0.2-0.2,0.8-0.8,1.3-1.2c2-1.4,2.3-2.2,3.5-2.6c0.8-0.2,1.4-0.2,1.5-0.4
		c0-0.2-0.3-0.3-0.7-0.6c-0.5-0.3-0.9-0.7-1.4-1.1c-0.6-0.5-2.5-2.2-2.9-2.7c-0.2-0.3-0.1-0.7-0.5-0.5c-0.7,0.3,0.1,1.6,0.2,2
		c0.1,0.8-1.9,3.1-2.3,4c0,0.1-0.7,0.8-0.7,1.1c0,0.3,0.3,0.3,0.4,0.4H13.1z"/>
	<path d="M5.7,24c0.1,0,0.1,0,0.1,0c0.1-0.1,0.1-0.1,0.3-0.3c0.1-0.1,0.2-0.2,0.3-0.2C7,22.8,7.5,22,8,21.3c0.9-1.2,2-2.3,3-3.4
		c0.3-0.3,1.2-1.1,1.3-1.4c0.2-0.5-0.4-0.4-0.7-0.2c-0.2,0.1-1.2,1.4-1.3,1.2l1.1-2.2L11.3,15c-0.2-0.2-0.6,0.4-0.7,0.6
		c-1.4,2.3-2.9,4.5-4.5,6.6C5.9,22.3,5.2,23,5.2,23c0,0.1-0.1,0.5,0.1,0.7C5.4,23.8,5.5,24,5.7,24L5.7,24z"/>
</g>
</svg>
