<?xml version="1.0" encoding="utf-8"?>
<!-- Generator: Adobe Adobe Illustrator 29.2.0, SVG Export Plug-In . SVG Version: 6.00 Build 0)  -->
<svg version="1.1" id="Layer_1" xmlns="http://www.w3.org/2000/svg" xmlns:xlink="http://www.w3.org/1999/xlink" x="0px" y="0px"
	 width="24px" height="24px" viewBox="0 0 24 24" style="enable-background:new 0 0 24 24;" xml:space="preserve">
<style type="text/css">
	.st0{fill:#FFFFFF;}
	.st1{fill:#FFFFFF;filter:url(#Adobe_OpacityMaskFilter);}
	.st2{mask:url(#mask0_2629_1446_00000153670773991245103320000003621354330740942488_);}
</style>
<g>
	<path d="M13.1,0c-0.1,2.8-0.2,5.7-0.3,8.6c0.1,0,3.4,0.4,3.5,0.4c0,0,1.6,0.2,1.6,0.2c0.2,0.8,0.3,1.6,0.5,2.3
		c-3.5,1.4-6.9,2.8-10.4,4.2l-0.7,2.8c0.9,0.9,1.7,1.8,2.6,2.7c1.7,0,3.4,0,5.2,0c0.8-1.3,1.5-2.7,2.3-4.1c-1.2,0-2.4,0-3.7,0
		c-0.5,0.8-1,1.5-1.5,2.3c-0.7-0.4-1.4-0.8-2.1-1.2c0.2-0.7,0.4-1.4,0.6-2.1c2.8-1,5.7-1.9,8.5-2.9c0.9,1.4,1.8,2.8,2.7,4.2
		c-1.4,2.2-2.8,4.3-4.3,6.5C14,23.9,10.4,24,6.7,24L2,19.2c0.8-1.7,1.5-3.4,2.3-5.1c3-1.1,6-2.1,9.1-3.2c-2.1-0.1-4.2-0.2-6.3-0.4
		L13.1,0z"/>
</g>
</svg>
