<?xml version="1.0" encoding="utf-8"?>
<!-- Generator: Adobe Adobe Illustrator 29.2.0, SVG Export Plug-In . SVG Version: 6.00 Build 0)  -->
<svg version="1.1" id="Layer_1" xmlns="http://www.w3.org/2000/svg" xmlns:xlink="http://www.w3.org/1999/xlink" x="0px" y="0px"
	 width="24px" height="24px" viewBox="0 0 24 24" style="enable-background:new 0 0 24 24;" xml:space="preserve">
<style type="text/css">
	.st0{fill:#FFFFFF;}
	.st1{fill:#FFFFFF;filter:url(#Adobe_OpacityMaskFilter);}
	.st2{mask:url(#mask0_2629_1446_00000163053276108970034300000007259621313044195499_);}
</style>
<g>
	<path d="M20.3,4.8c-0.1-0.8-0.1-1.8-0.3-3.1c-0.1,0-0.3,0-0.6-0.1C14.4,1.2,5.5,2,5.1,1.6c0,0-0.1-0.1-0.3-0.1
		c-0.1,0-0.1,0-0.2,0.1C4.3,1.9,4.2,2.5,4.1,2.8C4,4.5,4.2,6.4,4.1,8.1c0,0.6-0.2,1.2-0.2,1.8c-0.1,3,0.1,6-0.1,9
		c-0.1,1.5-0.5,2.8,0,4.3c0.1,0.2,0.3,0.5,0.5,0.6c1.1-0.2,2.1,0.1,3.2,0.2c0.5,0,2.6,0.1,5.6,0.1c1.9,0,4.3-0.1,7.1-0.4
		c0.1-0.9,0.2-2,0.2-3.3c0-0.7,0.1-1.9,0-3.5c-0.1-1.8-0.2-2.9-0.2-4.4c0-1,0-0.8,0.1-2.4C20.4,8.5,20.4,6.8,20.3,4.8L20.3,4.8z
		 M19.5,9.4C19.5,9.4,19.5,9.4,19.5,9.4c0.1,6.5,0.1,11.4,0,12.4c0,0.2-0.1,0.7-0.4,1c-0.3,0.2-0.6,0.3-1.2,0.4
		c-2.6,0.2-5.1,0-7.7-0.1c-0.7,0-1.4,0-2,0C7,23,5.9,22.8,4.8,22.7c-0.3-0.1-0.3-0.9-0.4-1.2c0-0.9,0.2-1.7,0.2-2.6
		c0.1-1.7,0.1-3.3,0.1-5C4.6,10,4.7,7.4,4.8,6c0-0.1,0.1-0.6,0.1-1.3C5,3.8,5,3,5,2.5C8.4,2.3,12,2.2,15.9,2.4
		c1.1,0,2.2,0.1,3.3,0.2c0.1,0.9,0.1,1.9,0.2,2.8C19.4,6.7,19.5,8.1,19.5,9.4L19.5,9.4z"/>
	<path d="M8.8,8.6c0-1.6,0-2.8,0-3.5C8.7,3.8,8.6,2.6,8.5,1.8c-0.3,0-0.5,0-0.8-0.1c0,0.4,0,1,0.1,1.7c0,0.2,0,0.3,0,0.3
		c0.1,1,0.1,5.9,0,12.4c0,0,0,0,0,0c0,1.3-0.1,2.7-0.1,4c0,1-0.1,1.9-0.2,2.8C7.1,23,6.5,23,6,23.1c0,0.1,0.1,0.1,0.1,0.1
		c0.1,0.1,0.2,0.2,0.2,0.3c0,0,0,0,0,0c0,0,0.1,0,0.1,0.1c0,0,0,0,0.1,0.1c0.4,0.1,0.8,0.2,1.2,0.2c0.3,0,0.5-0.1,0.5-0.1
		c0.2-1.3,0.3-2.3,0.3-3.1c0.1-2,0.1-3.7,0-5.3c0-1.6-0.1-1.4-0.1-2.4C8.6,11.4,8.7,10.3,8.8,8.6L8.8,8.6z"/>
	<defs>
		<filter id="Adobe_OpacityMaskFilter" filterUnits="userSpaceOnUse" x="3.6" y="0.5" width="4.7" height="40.6">
			<feColorMatrix  type="matrix" values="1 0 0 0 0  0 1 0 0 0  0 0 1 0 0  0 0 0 1 0"/>
		</filter>
	</defs>
	
		<mask maskUnits="userSpaceOnUse" x="3.6" y="0.5" width="4.7" height="40.6" id="mask0_2629_1446_00000163053276108970034300000007259621313044195499_">
		<path class="st1" d="M4.8,22.7c-0.3-0.1-0.3-0.9-0.4-1.2c0-0.9,0.2-1.7,0.2-2.6c0.1-1.7,0.1-3.4,0.1-5c-0.1-3.8,0-6.4,0.1-7.9
			c0-0.1,0.1-0.6,0.1-1.3C5,3.7,5,3,5,2.5c0.4-0.1,0.9-0.1,1.4-0.2c0.5-0.1,0.9-0.1,1.4-0.1c0,0.3,0,0.7,0.1,1.3c0,0.2,0,0.3,0,0.3
			c0.1,1,0.1,5.8,0,12.4c0,0,0,0,0,0c0,1.3-0.1,2.6-0.1,4c0,1-0.1,1.9-0.2,2.8c-0.1,0-0.3,0-0.4,0C6.4,22.9,5.6,22.7,4.8,22.7
			L4.8,22.7z"/>
	</mask>
	<g class="st2">
		<path d="M8.2,36.9c-0.3,0.3-0.8,0.2-0.9-0.1c0-0.2,0.1-0.4,0.2-0.5C7.8,36,8.6,36.4,8.2,36.9L8.2,36.9z M6.9,25.4
			c0.1,0.4,0.8,0.5,1,0.1C8.1,25,6.8,24.5,6.9,25.4z M7,30.5c0,0,0,0.4,0.1,0.5c0.2,0.6,1.1,0,0.9-0.3c-0.1-0.1-0.4-0.3-0.6-0.2
			C7.3,30.4,7,30.5,7,30.5L7,30.5z M7.9,38.3c-0.2-0.7-1.4-1.1-1.6-1.3C6.3,37,6.1,37,6.1,36.9c0-0.1,0.7-1,0.9-1.2
			c0.1-0.2,0.9-0.9,0.9-1c0-0.1-0.1-0.2-0.1-0.3c-0.1-0.4-0.1-1-0.1-1.5c0-0.2,0.2-0.4-0.1-0.5l0.1-0.3l-1.6-1.3
			c0.5-0.6,0.9-1.1,1.6-1.6l0.1-1.4c0-0.2,0-0.9-0.1-1c-0.1,0-0.2-0.1-0.3-0.1c-0.2-0.2-0.5-0.3-0.7-0.5c-0.2-0.1-1.1-0.6-1.1-0.8
			L7.1,24l0.4,0c0-0.5,0.1-1,0.2-1.5c0-0.1,0-0.5,0-0.6c0.1-0.2,0.4-0.2,0-0.5c-0.4-0.3-0.8-0.6-1.2-0.8c-0.2-0.2-0.6-0.3-0.8-0.4
			c0-0.1,0.8-0.7,1-0.8c0.1-0.1,0.4-0.4,0.5-0.5c0.1-0.1,0.2,0,0.3-0.1c0.1,0,0.1-0.5,0.1-0.6c0-0.2,0-1.2,0-1.2
			c-0.1,0-0.2-0.1-0.3-0.1C6.9,16.5,6.4,16.2,6,16c-0.1,0-0.2-0.1-0.2-0.2c0.4-0.2,0.7-0.6,1-0.9c0.2-0.2,0.8-0.6,0.8-0.9
			c0-0.3,0-0.5,0-0.8c0-0.5,0-1,0.1-1.5c0-0.1-0.7-0.5-0.8-0.5c-0.2-0.1-1.1-0.4-1-0.6c0,0,0.5-0.5,0.5-0.6c0.3-0.3,1.1-0.8,1.2-1.2
			c0.1-0.3,0.2-1.5,0.1-1.9c0,0,0-0.1-0.1-0.1C7,6.7,6.3,6.3,5.7,6c0.2-0.2,0.4-0.4,0.7-0.7C6.9,4.8,7,4.7,7.2,4.6
			c0.4-0.4,0.6-0.6,0.7-0.8C8,3.6,8,3.5,8.1,3.4C7,2.6,6.5,2.3,6.4,2.4c-0.1,0.1,0.3,0.5,1,1.3C6.6,4.4,6.1,5.3,5.1,5.9l0,0.3
			c0.7,0.3,1.4,0.6,2.1,1c0.1,0.1,0.1,0.4,0.1,0.5c0,0.2,0,0.8-0.1,1C7.1,9.1,6.3,9.7,6,9.9c-0.1,0.1-0.3,0.3-0.4,0.4
			C5.4,10.6,5,10.6,5,10.9c0,0.2,0.7,0.4,0.9,0.5c0.3,0.1,1,0.4,1.2,0.7c0.1,0.2,0,1.1,0,1.3c0,0.2,0.1,0.5-0.1,0.7
			c-0.1,0.1-0.2,0.1-0.3,0.2c-0.4,0.5-0.8,1-1.5,1.3c-0.1,0.1-0.2,0-0.2,0.1c-0.1,0.4,0,0.3,0.3,0.5c0.6,0.3,1.2,0.6,1.7,1l0,1.2
			c-0.4,0-0.4,0.3-0.6,0.5c-0.2,0.2-0.9,0.8-1.2,1c-0.1,0-0.2,0.1-0.2,0.1C5,20,5,20.3,5.1,20.4c0.8,0.3,1.5,0.8,2.2,1.3l0,0.1
			c-0.3,0.2-0.1,0.6-0.1,0.9c0,0.1-0.1,0.8-0.1,0.8c0,0-0.1,0-0.2,0.1c0,0,0,0.1-0.1,0.2c0,0.1-0.1,0.1-0.2,0.1
			c-0.3,0.4-0.5,0.7-1,1.1c-0.3,0.3-0.8,0.5-0.6,0.9c0.3,0.1,0.5,0.3,0.7,0.5c0.4,0.2,1.5,0.7,1.5,1.1c0,0.2,0,0.3,0,0.4
			c0,0.4,0.1,0.9,0,1.2c0,0.1-0.6,0.8-0.7,0.9c-0.2,0.2-0.4,0.4-0.6,0.6c-0.1,0.1-0.4,0.2-0.4,0.3c0,0.3,0.4,0.4,0.6,0.6
			c0.4,0.3,0.8,0.6,1.2,0.9c-0.1,0.7,0,1.5,0,2.2c-0.1,0.3-0.5,0.5-0.7,0.8c-0.3,0.4-0.7,1-1,1.3c-0.1,0.1-0.2,0.1-0.2,0.1
			c0,0.1,0,0.3,0.1,0.4c0.1,0.1,0.2,0.1,0.2,0.1c0.5,0.4,1.1,0.8,1.6,1.2l0.1,0.8c-0.1,0.4,0,0.7,0,1c0,0.1-0.2,0.8-0.1,0.8
			c0.5,0,0.5-0.4,0.5-0.6c0.1-0.6,0-1.2,0-1.8C7.9,38.3,7.9,38.4,7.9,38.3L7.9,38.3z M7.7,15.2c-0.5-0.2-0.9,0.1-0.8,0.5
			c0.1,0.3,0.7,0.2,0.9,0.1C8.1,15.6,8,15.3,7.7,15.2L7.7,15.2z M7.3,10.1c-0.1,0.1-0.2,0.4-0.1,0.5c0.1,0.2,0.5,0.4,0.7,0.3
			c0.3-0.1,0.3-0.8-0.1-0.9C7.7,10,7.3,10.1,7.3,10.1z M7.2,5.5c0,0-0.2,0.3-0.2,0.3C7,6.2,7.7,6.3,7.9,6C8.2,5.6,7.6,5.2,7.2,5.5z
			 M8,20c-0.1-0.2-0.4-0.4-0.7-0.3c-0.2,0.1-0.2,0.4-0.2,0.6C7.2,20.5,8.1,20.5,8,20z"/>
		<path d="M3.7,34.7C4,35,4.6,34.9,4.6,34.6c0-0.2-0.1-0.4-0.2-0.5C4.1,33.8,3.3,34.3,3.7,34.7L3.7,34.7z M4.9,23.2
			c-0.1,0.4-0.8,0.5-1,0.1C3.7,22.9,5.1,22.3,4.9,23.2z M4.9,28.3c0,0,0,0.4-0.1,0.5c-0.2,0.6-1.1,0-0.9-0.3
			c0.1-0.1,0.4-0.3,0.6-0.2C4.6,28.2,4.8,28.3,4.9,28.3L4.9,28.3z M4,36.1c0.4-0.4,1.1-0.8,1.6-1.3c0.1-0.1,0.2-0.1,0.2-0.2
			c0-0.1-0.7-1-0.9-1.2c-0.1-0.2-0.9-0.9-0.9-1c0-0.1,0.1-0.2,0.1-0.3c0.1-0.4,0.1-1,0.1-1.5c0-0.2-0.2-0.4,0.1-0.5l-0.1-0.3
			l1.6-1.3c-0.5-0.6-0.9-1.1-1.6-1.6L4,25.7c0-0.2,0-0.9,0.1-1c0.1,0,0.2-0.1,0.3-0.1c0.2-0.2,0.5-0.3,0.7-0.5
			c0.2-0.1,1.1-0.6,1.1-0.8l-1.5-1.5l-0.4,0c0-0.5-0.1-1-0.2-1.5c0-0.1,0-0.5,0-0.6c-0.1-0.2-0.4-0.2,0-0.5c0.4-0.3,0.8-0.6,1.2-0.8
			c0.2-0.2,0.6-0.3,0.8-0.4c0-0.1-0.8-0.7-1-0.8C5,17,4.8,16.7,4.7,16.6c-0.1-0.1-0.2,0-0.3-0.1c-0.1,0-0.1-0.5-0.1-0.6
			c0-0.2,0-1.2,0-1.2c0.1,0,0.2-0.1,0.3-0.1c0.4-0.2,0.9-0.5,1.3-0.7c0.1,0,0.2-0.1,0.2-0.2c-0.4-0.2-0.7-0.6-1-0.9
			c-0.2-0.2-0.8-0.6-0.8-0.9c0-0.3,0-0.5,0-0.8c0-0.5,0-1-0.1-1.5c0-0.1,0.7-0.5,0.8-0.5C5.2,9,6.1,8.8,6,8.5C6,8.5,5.6,8,5.5,8
			C5.2,7.6,4.4,7.1,4.3,6.8C4.1,6.5,4.1,5.2,4.1,4.9c0,0,0-0.1,0.1-0.1c0.7-0.2,1.4-0.6,2-1c0-0.1-0.6-0.6-0.7-0.7
			C5.3,2.9,5.2,2.7,5,2.5C4.9,2.5,4.6,2.1,4.5,2.2l0.1,0.5C4,2.8,4,2.1,3.9,1.8c0-0.4,0-0.9,0.1-1.3h0.4c0.2,0.3,0,0.7,0.1,1
			c0.3,0.4,0.7,0.8,1.1,1.2c0.4,0.4,0.8,0.7,1.2,1c0,0.1-0.1,0.2-0.1,0.3c-0.3,0.2-0.6,0.4-1,0.6C5.4,4.8,5,5,4.7,5.1
			C4.6,5.2,4.6,5.5,4.6,5.7c0,0.2,0,0.8,0.1,1c0.1,0.3,0.9,0.9,1.2,1.1C6,7.9,6.1,8.1,6.3,8.2c0.2,0.2,0.6,0.2,0.6,0.5
			c0,0.2-0.7,0.4-0.9,0.5c-0.3,0.1-1,0.4-1.2,0.7c-0.1,0.2,0,1.1,0,1.3c0,0.2-0.1,0.5,0.1,0.7C4.9,12,5,12.1,5.1,12.1
			c0.4,0.5,0.8,1,1.5,1.3c0.1,0.1,0.2,0,0.2,0.1c0.1,0.4,0,0.3-0.3,0.5c-0.6,0.3-1.2,0.6-1.7,1l0,1.2c0.4,0,0.4,0.3,0.6,0.5
			c0.2,0.2,0.9,0.8,1.2,1c0.1,0,0.2,0.1,0.2,0.1c0.1,0.1,0.1,0.3,0,0.4c-0.8,0.3-1.5,0.8-2.2,1.3l0,0.1c0.3,0.2,0.1,0.6,0.1,0.9
			c0,0.1,0.1,0.8,0.1,0.8c0,0,0.1,0,0.2,0.1c0,0,0,0.1,0.1,0.2c0,0.1,0.1,0.1,0.2,0.1c0.3,0.4,0.5,0.7,1,1.1C6.5,23,7,23.2,6.8,23.6
			c-0.3,0.1-0.5,0.3-0.7,0.5c-0.4,0.2-1.5,0.7-1.5,1.1c0,0.2,0,0.3,0,0.4c0,0.4-0.1,0.9,0,1.2c0,0.1,0.6,0.8,0.7,0.9
			c0.2,0.2,0.4,0.4,0.6,0.6c0.1,0.1,0.4,0.2,0.4,0.3c0,0.3-0.4,0.4-0.6,0.6c-0.4,0.3-0.8,0.6-1.2,0.9c0.1,0.7,0,1.5,0,2.2
			c0.1,0.3,0.5,0.5,0.7,0.8c0.3,0.4,0.7,1,1,1.3c0.1,0.1,0.2,0.1,0.2,0.1c0,0.1,0,0.3-0.1,0.4c-0.1,0.1-0.2,0.1-0.2,0.1
			C5.5,35.6,5,36,4.5,36.4l-0.1,0.8c0.1,0.4,0,0.7,0,1c0,0.1,0.2,0.8,0.1,0.8c-0.5,0-0.5-0.4-0.5-0.6c-0.1-0.6,0.1-1.3,0-1.8
			C3.9,36.3,3.7,36.4,4,36.1L4,36.1z M4.1,13c0.5-0.2,0.9,0.1,0.8,0.5c-0.1,0.3-0.7,0.2-0.9,0.1C3.7,13.4,3.8,13.1,4.1,13L4.1,13z
			 M4.6,7.9C4.7,8,4.8,8.3,4.7,8.4C4.7,8.7,4.3,8.8,4,8.7C3.7,8.6,3.7,7.9,4.1,7.9C4.2,7.9,4.6,7.9,4.6,7.9z M4.6,3.4
			c0,0,0.2,0.3,0.2,0.3C4.9,4,4.1,4.1,4,3.9C3.7,3.5,4.3,3,4.6,3.4z M3.9,17.8c0.1-0.2,0.4-0.4,0.7-0.3c0.2,0.1,0.2,0.4,0.2,0.6
			C4.7,18.4,3.8,18.4,3.9,17.8z"/>
	</g>
	<path d="M4.7,1.4C9.4,0.9,14.2,0.5,19,0l1,1.9H4.8C4.8,1.7,4.7,1.5,4.7,1.4L4.7,1.4z"/>
</g>
</svg>
