<?xml version="1.0" encoding="utf-8"?>
<!-- Generator: Adobe Adobe Illustrator 29.2.0, SVG Export Plug-In . SVG Version: 6.00 Build 0)  -->
<svg version="1.1" id="Layer_1" xmlns="http://www.w3.org/2000/svg" xmlns:xlink="http://www.w3.org/1999/xlink" x="0px" y="0px"
	 width="24px" height="24px" viewBox="0 0 24 24" style="enable-background:new 0 0 24 24;" xml:space="preserve">
<style type="text/css">
	.st0{fill:#FFFFFF;}
	.st1{fill:#FFFFFF;filter:url(#Adobe_OpacityMaskFilter);}
	.st2{mask:url(#mask0_2629_1446_00000163053276108970034300000007259621313044195499_);}
	.st3{stroke:#000000;stroke-width:0.35;stroke-miterlimit:10;}
</style>
<g>
	<g>
		<path class="st3" d="M10.5,7c0.2,0.1,0.5,0.5,0.8,0.7c1.9,1,4.2,1.4,6.1,2.2c0.2,0.1,1,0.3,0.8,0.5c-0.3,0.1-0.6,0.1-1,0.1
			c-0.2,0-0.3,0.1-0.5,0.1c-0.3,0.1-0.5,0.1-0.5,0.1c-1.1,0.2-2.1,1.3-2.1,1.3c-1.8,2.3-5.3,7.1-6.5,8.6c-0.3,0.4-0.6,0.8-1,1.3
			c-0.5,0.7-0.6,1.4-1.1,2.1c-0.5,0-1-0.1-1.3-0.4c-0.5-0.5,0.3-1.3,0.5-1.5c1.3-2.9,2.9-5.8,4.4-8.6c1.1-2.2,1.8-2.8,0.8-5.4
			C9.8,7.9,9.7,7.6,9.7,7.4C9.7,7,10.3,6.9,10.5,7L10.5,7z M15.2,10.1c-1.3-0.4-2.6-0.9-3.9-1.3c0,0.1-0.2,0.8,0,0.9
			c0.2,0.8,0.2,0.7,0,1.5c-0.6,1.8-1.8,3.9-2.6,5.6c-0.3,0.6-0.6,1.2-0.8,1.6l1.6-2.1c1.3-1.8,2.7-3.9,4.2-5.7
			C14.4,10.6,14.9,10.4,15.2,10.1z"/>
		<path class="st3" d="M16.6,4.3l-3.1-1.4c-0.6,0.8-1.3,1.5-2.1,2.2l1.3,2.6c1,0.4,1.9,0.8,2.9,1.2c1.5-0.4,3.1-0.8,4.5-1.2
			c-1.8-0.9-3.6-1.7-5.3-2.6c-0.3,0.1-0.3,0.5-0.3,0.7c0,0.3-0.2,1.3,0.5,1.3c1,0,0.3-0.7,0.8-1.1c0.3,0.2,2.3,1.2,2.1,1.3
			C17.3,7.6,16.6,7.8,16,8c-0.8-0.3-1.5-0.6-2.3-1c-0.3-0.7-0.6-1.3-1-1.9c0-0.1,0.8-1.1,0.8-1.3c0-0.1,0.2-0.1,0.3-0.1
			c0.8,0.4,1.6,0.8,2.4,1.2c1,0.4,1.8,0.9,2.6,1.3c-0.8-1.3-1.6-2.6-2.4-4c0.5-0.3,1.1-0.5,1.6-0.8c0.5-0.3,1.1-0.5,1.6-0.8
			c-0.3-0.2-0.8-0.5-1.1-0.7c-0.8,0.4-1.6,0.9-2.4,1.3c-0.3,0.2-0.6,0.4-1.1,0.6C15.8,2.9,16.3,3.7,16.6,4.3L16.6,4.3z"/>
	</g>
</g>
</svg>
