<?xml version="1.0" encoding="utf-8"?>
<!-- Generator: Adobe Adobe Illustrator 29.2.0, SVG Export Plug-In . SVG Version: 6.00 Build 0)  -->
<svg version="1.1" id="Layer_1" xmlns="http://www.w3.org/2000/svg" xmlns:xlink="http://www.w3.org/1999/xlink" x="0px" y="0px"
	 width="24px" height="24px" viewBox="0 0 24 24" style="enable-background:new 0 0 24 24;" xml:space="preserve">
<style type="text/css">
	.st0{fill:#FFFFFF;}
	.st1{fill:#FFFFFF;filter:url(#Adobe_OpacityMaskFilter);}
	.st2{mask:url(#mask0_2629_1446_00000163053276108970034300000007259621313044195499_);}
</style>
<g>
	<path d="M18.9,7.1c-0.1-0.7-0.2-1.5-0.3-2.2c-0.1,0.7-0.3,1.3-0.4,2c-0.2,0.3-0.4,0.6-0.6,0.9c-0.1-0.9-0.2-1.9-0.3-2.8
		c0.3-0.5,0.6-1.1,0.9-1.6c-0.4-1.1-0.9-2.2-1.3-3.3c0.1,1.1,0.2,2.2,0.3,3.3c-0.3,0.5-0.6,1-0.9,1.4c0.2,2.3,0.4,4.6,0.6,6.8
		c-0.4,0.9-0.7,1.9-1.1,2.8c0.7-1,1.5-2,2.2-3c-0.1-0.7-0.1-1.5-0.2-2.2C18.2,8.4,18.5,7.8,18.9,7.1L18.9,7.1z"/>
	<path d="M15.4,11c0.2-0.5,0.5-0.9,0.7-1.4c-0.1-1.5-0.2-3-0.3-4.5c-0.4,0.8-0.8,1.5-1.2,2.3c-0.4,0.3-0.9,0.6-1.3,0.8
		c-0.7,2.9-1.5,5.7-2.2,8.6c1.4-0.8,2.8-1.5,4.2-2.3c0.3-1,0.7-2.1,1-3.1C16,11.3,15.7,11.1,15.4,11z M14.6,14
		c-0.7,0.3-1.4,0.7-2.1,1c0.3-0.8,0.5-1.6,0.8-2.4c0.5-0.3,1-0.5,1.4-0.8c0.1,0.1,0.3,0.1,0.4,0.2C15,12.7,14.8,13.4,14.6,14
		L14.6,14z M14.3,10.9c-0.3,0.2-0.6,0.3-0.8,0.5c0.2-0.8,0.4-1.6,0.6-2.5c0.3-0.2,0.6-0.5,1-0.7c0,0.4,0.1,0.8,0.1,1.3
		C14.9,9.9,14.6,10.4,14.3,10.9L14.3,10.9z"/>
	<path d="M10.6,17.2C10,16.8,9.4,16.4,8.9,16c0,0,0,0,0,0l-1.2-0.8l0.6,1.6c-1.3,2.3-2.5,4.6-3.8,6.9C4.6,23.8,4.8,23.9,5,24
		c1.7-2,3.5-4.1,5.2-6.1l1.3,0L10.6,17.2C10.6,17.2,10.6,17.2,10.6,17.2L10.6,17.2z"/>
	<path d="M11.8,8c-0.6,2.2-1.1,4.4-1.7,6.6c-0.3,0.3-0.6,0.7-0.9,1c0.5,0.4,1,0.7,1.5,1.1c0.7-2.9,1.4-5.9,2.1-8.8
		c0.4-0.2,0.8-0.5,1.2-0.7C14.7,6,15.4,5,16,3.9c-0.9,0.8-1.8,1.6-2.8,2.4C12.1,6.7,11,7.2,9.9,7.7c-0.2,1.9-0.4,3.9-0.7,5.8
		c0.5-1.6,1-3.2,1.5-4.8C11,8.4,11.4,8.2,11.8,8z"/>
</g>
</svg>
