<?xml version="1.0" encoding="utf-8"?>
<!-- Generator: Adobe Adobe Illustrator 29.2.0, SVG Export Plug-In . SVG Version: 6.00 Build 0)  -->
<svg version="1.1" id="Layer_1" xmlns="http://www.w3.org/2000/svg" xmlns:xlink="http://www.w3.org/1999/xlink" x="0px" y="0px"
	 width="24px" height="24px" viewBox="0 0 24 24" style="enable-background:new 0 0 24 24;" xml:space="preserve">
<style type="text/css">
	.st0{stroke:#000000;stroke-width:0.5;stroke-miterlimit:10;}
	.st1{fill:#FFFFFF;}
	.st2{fill:#FFFFFF;filter:url(#Adobe_OpacityMaskFilter);}
	.st3{mask:url(#mask0_2629_1446_00000163053276108970034300000007259621313044195499_);}
	.st4{stroke:#000000;stroke-width:0.5;stroke-linecap:round;stroke-linejoin:round;stroke-miterlimit:10;}
</style>
<g>
	<path d="M12,0c4.3-0.2,9,2,10.8,5.9c1.4,3.1,1.3,5.9,1.1,7.1c-0.1,0.7-0.5,3.7-2.9,6.6c-0.8,1-2.2,2.8-4.8,3.8
		c-1.9,0.7-3.6,0.7-5,0.6c-4.2-0.3-6.7-1.3-9.1-4.7c-2.6-3.6-3-9.7-0.5-13.4C4.3,1.9,7.1,0.3,12,0z M12.4,1.8
		c0.1-0.3,0.2-1.3-0.1-1.4c-0.8-0.1-1.7,0.1-2.5,0.3c-0.1,0-0.2,0-0.2,0.1L9.9,2C10.7,1.7,11.5,1.8,12.4,1.8L12.4,1.8z M15.3,2.4
		l0.4-1.3C15.7,1,15.6,1,15.6,1c-0.2-0.2-2.1-0.5-2.4-0.5c-0.1,0-0.2,0-0.3,0.1L13,1.9C13.8,1.9,14.6,2.1,15.3,2.4L15.3,2.4z
		 M9.3,2.2C9.4,1.9,9.2,1.1,8.9,1c-0.3-0.1-1.9,0.4-2,0.7C6.7,2.1,7,2.8,7.4,2.9L9.3,2.2L9.3,2.2z M17.6,3.2c0-0.4,0.8-0.8,0.6-1.2
		c-0.1-0.3-1.8-1-2-0.9c-0.2,0.1-0.5,1.2-0.4,1.4L17.6,3.2z M5.7,2.1C5.5,2.2,4.1,3.3,4,3.5C3.9,3.9,4.4,4.3,4.7,4.6l2-1.3
		C6.3,3,6.2,2,5.7,2.1L5.7,2.1z M10.7,2.2C9.2,2.4,5.8,4,4.8,5c-3.5,3.6-3.5,9.4-0.9,13.5c2.4,3.9,8.4,4.3,12.3,2.4
		c5.2-2.5,7.3-11.3,3.4-15.6C17.8,3.3,13.2,1.9,10.7,2.2L10.7,2.2z M18.2,3.5c0.3,0.1,0.7,0.4,1,0.6c0.8,0.6,0.7,1.1,1.7,0.1
		c0.1-0.3-0.3-0.7-0.6-0.9c-0.1-0.1-1.3-0.9-1.4-1C18.6,2.2,18.1,3.4,18.2,3.5L18.2,3.5z M3.5,4.1c-0.1,0-1.3,1.6-1.3,1.8L3,6.6
		l1.2-1.5C4.3,4.9,3.7,4,3.5,4.1L3.5,4.1z M21.3,4.4c-0.1,0-0.8,0.6-0.9,0.6c-0.2,0.3,0.1,0.4,0.3,0.6c0.2,0.3,0.8,1.5,1,1.6
		c0.2,0.1,1,0,1-0.4C22.6,6.6,21.7,4.5,21.3,4.4L21.3,4.4z M1.8,9.8C1.7,9,2.7,7.9,2.8,7.3c0-0.4-0.9-1.2-1.1-0.8
		c-0.2,0.4-1.4,2.8-1,3.1L1.8,9.8z M23.4,10.7c0.1-0.5-0.3-3-0.7-3.1l-0.9,0.2L21.8,8C21.9,8.3,22,8.7,22,9c0,0.3,0.1,1.4,0.2,1.5
		C22.3,10.9,23.1,10.7,23.4,10.7z M1.7,12.9c-0.3-0.7,0.1-1.9-0.1-2.6c-0.1-0.3-0.7-0.4-1-0.3c-0.2,0-0.1,0.2-0.2,0.3
		c-0.1,0.8,0.1,1.6,0.1,2.4C0.6,13,1.4,12.7,1.7,12.9L1.7,12.9z M22.1,11.2c0,0.4,0,0.7,0,1.1c0,0.3-0.2,1.1-0.2,1.3
		c0.1,0.3,0.9,0.3,1.1,0.5c0.5-0.8,0.2-1.8,0.4-2.7C23.4,11.2,22.4,11.2,22.1,11.2L22.1,11.2z M2.2,15.5C2,14.7,1.6,14,1.7,13.2
		l-1,0c-0.2,0.2,0.2,2.5,0.4,2.5L2.2,15.5z M21.1,16.2l1.1,0.4c0.1-0.1,0.7-1.7,0.7-1.9c0-0.3-0.9-0.7-1.1-0.5
		C21.6,14.6,20.9,15.9,21.1,16.2z M2.2,15.9l-1.1,0.2c-0.1,0.3,0.8,2,1,2.1l0.7-0.5L2.2,15.9z M20.1,19.2c0.1,0,0.1,0.1,0.1,0.1
		c0.1,0.1,0.2,0.1,0.3,0.1c0.3-0.3,0.6-0.7,0.9-1.2c0.2-0.4,0.4-0.8,0.6-1.1l-1.1-0.5l-1.1,2C19.6,18.8,19.9,19.1,20.1,19.2z
		 M4,20.5c0.4-0.7,0.2-0.5-0.1-1c-0.1-0.2-0.5-1.2-0.8-1.2c-0.1,0-0.7,0.3-0.7,0.5c0,0.2,1.1,1.5,1.3,1.6C3.8,20.5,3.9,20.5,4,20.5z
		 M18.3,21.2c0,0.1,0.1,0.1,0.1,0.2c0.2-0.1,0.4-0.3,0.7-0.5c0.4-0.4,0.7-0.7,0.9-1.1c-0.1-0.1-0.2-0.2-0.3-0.3
		c-0.1-0.1-0.2-0.2-0.3-0.2c-0.3-0.1-1,0.9-1.4,1l0,0.2L18.3,21.2L18.3,21.2z M4.7,20.3c-0.2,0-0.5,0.4-0.4,0.7
		c0.1,0.2,1.4,1.2,1.5,1.1l0.5-0.8C6,21.2,4.8,20.3,4.7,20.3L4.7,20.3z M17.4,20.8c-0.7,0.3-1.4,0.8-2.2,1c0,0.2,0.4,1.2,0.4,1.2
		c0.3,0.2,2.1-0.9,2.3-1.2C18,21.5,17.4,21,17.4,20.8L17.4,20.8z M6.4,22.4c0.9,0.4,1.8,0.6,2.8,0.8l0.2-0.8l-0.1-0.2
		c-0.9,0.1-1.6-0.4-2.4-0.7C6.7,21.8,6.2,22.2,6.4,22.4z M12.9,23.4c0.3,0.2,1.8,0.1,2.1-0.1c0.1,0,0.2-0.1,0.1-0.2l-0.5-1
		C14.6,22,14.4,22,14.3,22c-0.5,0-1.1,0.3-1.6,0.3C12.6,22.5,12.7,23.2,12.9,23.4L12.9,23.4z M11.6,22.4c-0.3,0-1.7,0.1-1.7,0.1
		c-0.1,0.1-0.1,0.5,0,0.7c0.1,0.2,0.6,0.2,0.8,0.3c0.2,0,1.5,0.1,1.5,0.1c0.2-0.1,0-0.9-0.1-1.1C12,22.3,11.7,22.4,11.6,22.4
		L11.6,22.4z"/>
	<path d="M18.7,6.8c0.3,0.4,1.3,1.7,1.6,3.7c0,0.3,0.2,1.6-0.2,3.2c0,0-0.1,0.5-0.3,1c-1.7,4.7-6.8,7.6-11.8,5.5
		c-3.3-1.4-5.1-5.1-4.9-8.4C3.4,8.2,6,4.8,9.5,3.8c2.7-0.8,5.1,0.2,5.8,0.4C17.4,5.1,18.5,6.5,18.7,6.8L18.7,6.8z M16.4,18.6
		c1.7-1.3,2.2-2.3,2.8-4.3c0.8-2.8,0.7-5.4-1.4-7.5C13.4,2.1,6.4,3.4,4.1,9.3c-1.2,3.1-0.2,7.8,2.8,9.7C10,20.9,13.5,20.9,16.4,18.6
		z"/>
	<path class="st0" d="M6.8,10c0-0.3,0.1-1.2,0.6-2.1c0.1-0.1,0.5-0.7,1.2-1.3c0,0,0.2-0.2,0.5-0.3c2.3-1.3,5.4-0.8,6.8,1.8
		c0.9,1.7,0.3,3.8-0.9,5.1c-1.4,1.5-3.6,2-5.4,1.1c-1.4-0.6-2.1-1.8-2.2-2.2C6.8,11.2,6.8,10.2,6.8,10L6.8,10z M11.9,6
		c-1.2,0-1.7,0.2-2.7,0.8c-1.3,0.9-2.1,2-2,3.6c0.2,3.5,3.6,5.3,6.6,3.7c1.6-0.9,2.8-3.1,2.2-4.9C15.3,7.2,13.9,6,11.9,6z"/>
</g>
<path class="st0" d="M5,17.4c1-1,2.3-2.2,4.1-3.2c0.1,0.1,0.3,0,0.4,0.1c-1.6,0.9-3,2.2-4.2,3.6"/>
<path class="st4" d="M13.6,14.3c0.1-0.1,0.3,0,0.4-0.1c1.5,0.7,2.5,1.2,2.9,1.6l0,0c0.2,0.1,0.8,0.6,1.4,1.1
	c-0.2,0.3-0.2,0.2-0.4,0.2c-0.4-0.4-0.2-0.1-0.6-0.5C16.1,15.7,14.8,14.9,13.6,14.3z"/>
</svg>
